<svg width="590" height="160" viewBox="0 0 590 160" fill="none" xmlns="http://www.w3.org/2000/svg">
<mask id="mask0_621_1655" style="mask-type:alpha" maskUnits="userSpaceOnUse" x="0" y="0" width="160" height="160">
<rect width="160" height="160" rx="31.0078" fill="#52BF1D"/>
<rect width="160" height="160" rx="31.0078" fill="url(#paint0_radial_621_1655)"/>
</mask>
<g mask="url(#mask0_621_1655)">
<g filter="url(#filter0_d_621_1655)">
<rect width="160" height="160" rx="31.0078" fill="#52BF1D"/>
<rect width="160" height="160" rx="31.0078" fill="url(#paint1_linear_621_1655)"/>
<g filter="url(#filter1_f_621_1655)">
<rect x="-120.93" y="69.4575" width="210.853" height="210.853" rx="31.0078" fill="#D7FA33"/>
</g>
</g>
</g>
<g clip-path="url(#clip0_621_1655)" filter="url(#filter2_diii_621_1655)">
<path d="M66.7226 28.2254C73.653 35.7619 74.5027 47.0707 68.7764 55.5583L57.1759 72.7525C53.2811 78.5254 44.6677 78.1646 41.2694 72.0861L31.1477 53.9818C26.1513 45.045 27.944 33.847 35.4805 26.9165V26.9165C44.4692 18.6507 58.4568 19.2367 66.7226 28.2254V28.2254Z" fill="#473A33"/>
<path d="M129.294 128.392C121.758 135.323 110.449 136.172 101.961 130.446L84.767 118.846C78.9941 114.951 79.355 106.337 85.4334 102.939L103.538 92.8174C112.475 87.821 123.673 89.6137 130.603 97.1502V97.1502C138.869 106.139 138.283 120.126 129.294 128.392V128.392Z" fill="#473A33"/>
<path d="M128.229 57.1447C127.8 67.3743 120.405 75.9717 110.354 77.9242L89.9929 81.8796C83.1568 83.2076 77.3213 76.8618 79.2165 70.1608L84.8611 50.2019C87.6474 40.3497 96.8332 33.6991 107.063 34.1277V34.1277C119.264 34.6389 128.74 44.9439 128.229 57.1447V57.1447Z" fill="#473A33"/>
</g>
<path d="M476.769 136C475.169 136 473.995 135.573 473.249 134.72C472.609 133.866 472.022 132.96 471.489 132L440.769 57.7598C440.662 57.4398 440.609 57.0665 440.609 56.6398C440.609 55.5731 440.982 54.6665 441.729 53.9198C442.475 53.1731 443.382 52.7998 444.449 52.7998H471.489C473.089 52.7998 474.262 53.2265 475.009 54.0798C475.862 54.9331 476.449 55.7865 476.769 56.6398L489.569 93.9198L502.369 56.6398C502.689 55.7865 503.222 54.9331 503.969 54.0798C504.822 53.2265 506.049 52.7998 507.649 52.7998H534.689C535.755 52.7998 536.662 53.1731 537.409 53.9198C538.155 54.6665 538.529 55.5731 538.529 56.6398C538.529 57.0665 538.475 57.4398 538.369 57.7598L507.649 132C507.222 132.96 506.635 133.866 505.889 134.72C505.142 135.573 503.969 136 502.369 136H476.769Z" fill="#473A33"/>
<path d="M346.175 136C345.002 136 343.988 135.573 343.135 134.72C342.282 133.866 341.855 132.853 341.855 131.68V57.1198C341.855 55.9465 342.282 54.9331 343.135 54.0798C343.988 53.2265 345.002 52.7998 346.175 52.7998H374.815C375.988 52.7998 377.002 53.2265 377.855 54.0798C378.708 54.9331 379.135 55.9465 379.135 57.1198V131.68C379.135 132.853 378.708 133.866 377.855 134.72C377.002 135.573 375.988 136 374.815 136H346.175Z" fill="#473A33"/>
<rect x="341.855" y="2" width="37.28" height="44.736" rx="18.64" fill="#473A33"/>
<path d="M398.095 136C396.922 136 395.908 135.573 395.055 134.72C394.202 133.866 393.775 132.853 393.775 131.68V57.1198C393.775 55.9465 394.202 54.9331 395.055 54.0798C395.908 53.2265 396.922 52.7998 398.095 52.7998H426.735C427.908 52.7998 428.922 53.2265 429.775 54.0798C430.628 54.9331 431.055 55.9465 431.055 57.1198V131.68C431.055 132.853 430.628 133.866 429.775 134.72C428.922 135.573 427.908 136 426.735 136H398.095Z" fill="#473A33"/>
<rect x="393.775" y="2" width="37.28" height="44.736" rx="18.64" fill="#473A33"/>
<path d="M552.095 136C550.922 136 549.908 135.573 549.055 134.72C548.202 133.866 547.775 132.853 547.775 131.68V57.1198C547.775 55.9465 548.202 54.9331 549.055 54.0798C549.908 53.2265 550.922 52.7998 552.095 52.7998H580.735C581.908 52.7998 582.922 53.2265 583.775 54.0798C584.628 54.9331 585.055 55.9465 585.055 57.1198V131.68C585.055 132.853 584.628 133.866 583.775 134.72C582.922 135.573 581.908 136 580.735 136H552.095Z" fill="#473A33"/>
<rect x="547.775" y="2" width="37.28" height="44.736" rx="18.64" fill="#473A33"/>
<path d="M228.32 136C227.147 136 226.133 135.573 225.28 134.72C224.427 133.867 224 132.853 224 131.68V28.32C224 27.1467 224.427 26.1333 225.28 25.28C226.133 24.4267 227.147 24 228.32 24H258.88C260.053 24 261.067 24.4267 261.92 25.28C262.773 26.1333 263.2 27.1467 263.2 28.32V60L281.28 27.52C281.813 26.6667 282.56 25.8667 283.52 25.12C284.587 24.3733 285.973 24 287.68 24H323.04C324 24 324.8 24.3733 325.44 25.12C326.187 25.76 326.56 26.56 326.56 27.52C326.56 28.16 326.4 28.7467 326.08 29.28L297.28 77.6L328.8 130.72C329.12 131.147 329.28 131.733 329.28 132.48C329.28 133.44 328.907 134.293 328.16 135.04C327.52 135.68 326.72 136 325.76 136H289.28C287.147 136 285.547 135.52 284.48 134.56C283.52 133.493 282.933 132.747 282.72 132.32L263.2 97.44V131.68C263.2 132.853 262.773 133.867 261.92 134.72C261.067 135.573 260.053 136 258.88 136H228.32Z" fill="#473A33"/>
<defs>
<filter id="filter0_d_621_1655" x="-122.171" y="0" width="283.411" height="282.791" filterUnits="userSpaceOnUse" color-interpolation-filters="sRGB">
<feFlood flood-opacity="0" result="BackgroundImageFix"/>
<feColorMatrix in="SourceAlpha" type="matrix" values="0 0 0 0 0 0 0 0 0 0 0 0 0 0 0 0 0 0 127 0" result="hardAlpha"/>
<feOffset dy="1.24031"/>
<feGaussianBlur stdDeviation="0.620155"/>
<feComposite in2="hardAlpha" operator="out"/>
<feColorMatrix type="matrix" values="0 0 0 0 0 0 0 0 0 0 0 0 0 0 0 0 0 0 0.25 0"/>
<feBlend mode="normal" in2="BackgroundImageFix" result="effect1_dropShadow_621_1655"/>
<feBlend mode="normal" in="SourceGraphic" in2="effect1_dropShadow_621_1655" result="shape"/>
</filter>
<filter id="filter1_f_621_1655" x="-182.946" y="7.44202" width="334.884" height="334.884" filterUnits="userSpaceOnUse" color-interpolation-filters="sRGB">
<feFlood flood-opacity="0" result="BackgroundImageFix"/>
<feBlend mode="normal" in="SourceGraphic" in2="BackgroundImageFix" result="shape"/>
<feGaussianBlur stdDeviation="31.0078" result="effect1_foregroundBlur_621_1655"/>
</filter>
<filter id="filter2_diii_621_1655" x="8.87075" y="2.99093" width="152.37" height="152.148" filterUnits="userSpaceOnUse" color-interpolation-filters="sRGB">
<feFlood flood-opacity="0" result="BackgroundImageFix"/>
<feColorMatrix in="SourceAlpha" type="matrix" values="0 0 0 0 0 0 0 0 0 0 0 0 0 0 0 0 0 0 127 0" result="hardAlpha"/>
<feOffset dy="3.27679"/>
<feGaussianBlur stdDeviation="1.63839"/>
<feColorMatrix type="matrix" values="0 0 0 0 0 0 0 0 0 0 0 0 0 0 0 0 0 0 0.3 0"/>
<feBlend mode="normal" in2="BackgroundImageFix" result="effect1_dropShadow_621_1655"/>
<feBlend mode="normal" in="SourceGraphic" in2="effect1_dropShadow_621_1655" result="shape"/>
<feColorMatrix in="SourceAlpha" type="matrix" values="0 0 0 0 0 0 0 0 0 0 0 0 0 0 0 0 0 0 127 0" result="hardAlpha"/>
<feOffset dx="-4.65116" dy="-4.65116"/>
<feGaussianBlur stdDeviation="4.65116"/>
<feComposite in2="hardAlpha" operator="arithmetic" k2="-1" k3="1"/>
<feColorMatrix type="matrix" values="0 0 0 0 0 0 0 0 0 0 0 0 0 0 0 0 0 0 0.25 0"/>
<feBlend mode="normal" in2="shape" result="effect2_innerShadow_621_1655"/>
<feColorMatrix in="SourceAlpha" type="matrix" values="0 0 0 0 0 0 0 0 0 0 0 0 0 0 0 0 0 0 127 0" result="hardAlpha"/>
<feOffset dx="4.65116" dy="4.65116"/>
<feGaussianBlur stdDeviation="4.65116"/>
<feComposite in2="hardAlpha" operator="arithmetic" k2="-1" k3="1"/>
<feColorMatrix type="matrix" values="0 0 0 0 0.739486 0 0 0 0 0.680197 0 0 0 0 0.680197 0 0 0 0.1 0"/>
<feBlend mode="normal" in2="effect2_innerShadow_621_1655" result="effect3_innerShadow_621_1655"/>
<feColorMatrix in="SourceAlpha" type="matrix" values="0 0 0 0 0 0 0 0 0 0 0 0 0 0 0 0 0 0 127 0" result="hardAlpha"/>
<feOffset dx="2.48062" dy="2.48062"/>
<feGaussianBlur stdDeviation="3.10078"/>
<feComposite in2="hardAlpha" operator="arithmetic" k2="-1" k3="1"/>
<feColorMatrix type="matrix" values="0 0 0 0 1 0 0 0 0 1 0 0 0 0 1 0 0 0 0.15 0"/>
<feBlend mode="normal" in2="effect3_innerShadow_621_1655" result="effect4_innerShadow_621_1655"/>
</filter>
<radialGradient id="paint0_radial_621_1655" cx="0" cy="0" r="1" gradientUnits="userSpaceOnUse" gradientTransform="translate(80 80) rotate(90) scale(80)">
<stop stop-color="#7CE04C"/>
<stop offset="1" stop-color="#52BF1D" stop-opacity="0"/>
</radialGradient>
<linearGradient id="paint1_linear_621_1655" x1="114.574" y1="45.8915" x2="32.4031" y2="126.047" gradientUnits="userSpaceOnUse">
<stop stop-color="#52BF1D" stop-opacity="0"/>
<stop offset="1" stop-color="#74FA33"/>
</linearGradient>
<clipPath id="clip0_621_1655">
<rect width="143.067" height="140.943" fill="white" transform="translate(13.5219 7.64209)"/>
</clipPath>
</defs>
</svg>
